<svg width="40" height="41" viewBox="0 0 40 41" fill="none" xmlns="http://www.w3.org/2000/svg">
<rect width="40" height="40.1354" rx="11.1782" fill="#3692FF"/>
<path d="M19.3143 11.1742C19.8136 12.8997 18.4934 14.801 16.9801 15.2419C15.4668 15.6828 13.3994 14.7684 12.9001 13.0429C12.4008 11.3174 13.4489 8.92666 14.9622 8.48579C16.9801 7.89791 18.815 9.44875 19.3143 11.1742Z" fill="#222327"/>
<path d="M20.1465 11.1742C19.6472 12.8997 20.9674 14.801 22.4807 15.2419C23.994 15.6828 26.0614 14.7684 26.5607 13.0429C27.06 11.3174 26.0119 8.92666 24.4986 8.48579C22.4807 7.89791 20.6458 9.44875 20.1465 11.1742Z" fill="#222327"/>
<path d="M29.5171 23.7798C29.5171 28.1686 25.2137 29.8 19.3436 29.8C13.4735 29.8 9.26746 28.1686 9.26746 23.7798C9.26746 18.6747 13.4735 14.1475 19.3436 14.1475C25.2137 14.1475 29.5171 18.2894 29.5171 23.7798Z" fill="#F3D6DD"/>
<path d="M17.4004 22.9133C17.4004 24.3507 16.4778 25.9276 15.1885 25.9276C13.8992 25.9276 11.8165 24.7564 11.8165 22.6092C11.8165 20.5922 14.0665 19.8748 16.3914 20.2432C17.8164 20.4689 17.4004 21.4759 17.4004 22.9133Z" fill="#222327"/>
<path d="M16.322 22.7683C16.322 22.9839 16.2571 23.1587 15.9329 23.1587C15.6087 23.1587 15.5438 22.9839 15.5438 22.7683C15.5438 22.5527 15.6735 22.3779 15.9329 22.3779C16.1923 22.3779 16.322 22.5527 16.322 22.7683Z" fill="white"/>
<path d="M21.3221 22.9134C21.3221 24.3508 22.2447 25.9276 23.534 25.9276C24.8233 25.9276 26.906 24.7565 26.906 22.6093C26.906 20.5922 24.6561 19.8749 22.3311 20.2432C20.9061 20.469 21.3221 21.476 21.3221 22.9134Z" fill="#222327"/>
<path d="M22.4018 22.7682C22.4018 22.9838 22.4666 23.1586 22.7909 23.1586C23.1151 23.1586 23.1799 22.9838 23.1799 22.7682C23.1799 22.5526 23.0502 22.3778 22.7909 22.3778C22.5315 22.3778 22.4018 22.5526 22.4018 22.7682Z" fill="white"/>
<path d="M17.8753 24.9924C17.7968 24.8778 17.6403 24.8486 17.5257 24.9271C17.4111 25.0056 17.3819 25.1621 17.4604 25.2767L17.6678 25.1346L17.8753 24.9924ZM19.3178 24.683L19.5557 24.6015C19.5209 24.4998 19.4253 24.4315 19.3178 24.4315C19.2103 24.4315 19.1147 24.4998 19.0799 24.6015L19.3178 24.683ZM21.1753 25.2767C21.2538 25.1621 21.2245 25.0056 21.1099 24.9271C20.9954 24.8486 20.8388 24.8778 20.7603 24.9924L20.9678 25.1346L21.1753 25.2767ZM17.6678 25.1346L17.4604 25.2767C17.5299 25.3781 17.6561 25.5141 17.8253 25.6263C17.9961 25.7396 18.2243 25.8376 18.4928 25.8376V25.5861V25.3346C18.3489 25.3346 18.2162 25.282 18.1034 25.2072C17.989 25.1313 17.909 25.0415 17.8753 24.9924L17.6678 25.1346ZM18.4928 25.5861V25.8376C18.8234 25.8376 19.0692 25.6018 19.2222 25.3988C19.3837 25.1845 19.4979 24.9334 19.5557 24.7646L19.3178 24.683L19.0799 24.6015C19.0346 24.7337 18.9425 24.9341 18.8205 25.0961C18.6899 25.2693 18.5748 25.3346 18.4928 25.3346V25.5861ZM19.3178 24.683L19.0799 24.7646C19.1377 24.9334 19.2519 25.1845 19.4134 25.3988C19.5664 25.6018 19.8123 25.8376 20.1428 25.8376V25.5861V25.3346C20.0608 25.3346 19.9457 25.2693 19.8151 25.0961C19.6931 24.9341 19.601 24.7337 19.5557 24.6015L19.3178 24.683ZM20.1428 25.5861V25.8376C20.4114 25.8376 20.6395 25.7396 20.8103 25.6263C20.9796 25.5141 21.1058 25.3781 21.1753 25.2767L20.9678 25.1346L20.7603 24.9924C20.7267 25.0415 20.6466 25.1313 20.5323 25.2072C20.4195 25.282 20.2867 25.3346 20.1428 25.3346V25.5861Z" fill="#222327"/>
<path d="M20.691 24.4509C20.691 24.6602 19.7489 24.9265 19.4319 25.0101C19.3641 25.028 19.2942 25.028 19.2265 25.0101C18.9094 24.9265 17.9674 24.6602 17.9674 24.4509C17.9674 24.1994 18.7203 23.9304 19.3292 23.9304C19.938 23.9304 20.691 24.1994 20.691 24.4509Z" fill="#222327"/>
<path d="M19.1664 17.7599C15.3822 17.7599 13.9915 16.4304 13.7665 15.6528L15.5664 13.6963L19.4664 13.019L24.8663 15.6528C24.5413 16.2799 22.9548 17.7599 19.1664 17.7599Z" fill="#222327"/>
<path d="M19.6897 10.8364C27.5095 10.8364 33.2432 16.4318 33.2434 23.8491C33.2434 29.7783 27.5097 31.9828 19.6897 31.9828C11.8699 31.9828 6.26685 29.7782 6.26685 23.8491C6.2671 16.9524 11.87 10.8365 19.6897 10.8364ZM19.3831 14.2202C13.6309 14.2202 9.50914 18.6988 9.50903 23.7495C9.50903 28.0915 13.6308 29.7055 19.3831 29.7055C25.135 29.7054 29.3518 28.0914 29.3518 23.7495C29.3517 18.3178 25.135 14.2204 19.3831 14.2202Z" fill="white"/>
</svg>
