<svg width="1520" height="20" viewBox="0 0 1520 20" fill="none" xmlns="http://www.w3.org/2000/svg">
<path d="M3.89844 9.84375C3.89844 8.03125 5.36719 6.57812 7.17969 6.57812C8.74219 6.57812 10.0547 7.67188 10.2734 9.14062H8.91406C8.75781 8.39062 8.00781 7.85938 7.17969 7.85938C6.08594 7.85938 5.19531 8.75 5.19531 9.84375C5.19531 10.9375 6.08594 11.8281 7.17969 11.8281C8.00781 11.8281 8.64844 11.2969 8.80469 10.5469H10.1484C9.94531 12.0156 8.74219 13.1094 7.17969 13.1094C5.36719 13.1094 3.89844 11.6562 3.89844 9.84375ZM7.11719 15.6719C3.91406 15.6719 1.27344 13.0625 1.28906 9.84375C1.28906 6.60938 3.91406 4.01562 7.11719 4.01562C10.3516 4.01562 12.9453 6.60938 12.9453 9.84375C12.9609 13.0625 10.3516 15.6719 7.11719 15.6719ZM7.11719 14.375C9.63281 14.375 11.6641 12.3438 11.6484 9.84375C11.6328 7.32812 9.61719 5.3125 7.11719 5.3125C4.63281 5.3125 2.60156 7.34375 2.58594 9.84375C2.57031 12.3281 4.61719 14.375 7.11719 14.375ZM18.3047 15.6719C15.8984 15.6719 14.4297 13.8438 14.4297 11.2969C14.4297 8.71875 15.9609 6.90625 18.2734 6.90625C20.0859 6.90625 21.4297 7.96875 21.6484 9.57812H20.3047C20.1172 8.79688 19.4297 8.09375 18.3047 8.09375C16.7891 8.09375 15.7734 9.34375 15.7734 11.25C15.7734 13.2188 16.7578 14.4688 18.3047 14.4688C19.3047 14.4688 20.0703 13.9375 20.3047 13H21.6484C21.4297 14.5156 20.1953 15.6719 18.3047 15.6719ZM26.7734 15.6719C24.4609 15.6719 22.8984 13.9375 22.8984 11.2969C22.8984 8.65625 24.4609 6.90625 26.7734 6.90625C29.0703 6.90625 30.6172 8.65625 30.6172 11.2969C30.6172 13.9375 29.0703 15.6719 26.7734 15.6719ZM26.7734 14.4844C28.4766 14.4844 29.2734 12.9844 29.2734 11.2969C29.2734 9.60938 28.4766 8.09375 26.7734 8.09375C25.0391 8.09375 24.2422 9.60938 24.2422 11.2969C24.2422 12.9844 25.0391 14.4844 26.7734 14.4844ZM35.5859 15.6719C33.4766 15.6719 31.9766 13.9688 31.9766 11.2812C31.9766 8.59375 33.4766 6.90625 35.6016 6.90625C37.2422 6.90625 37.7734 7.90625 38.0547 8.35938H38.1484V4.1875H39.5078V15.5H38.1953V14.2031H38.0547C37.7578 14.6719 37.2109 15.6719 35.5859 15.6719ZM35.7734 14.4688C37.3203 14.4688 38.1953 13.1562 38.1953 11.25C38.1953 9.375 37.3516 8.10938 35.7734 8.10938C34.1484 8.10938 33.3359 9.48438 33.3359 11.25C33.3359 13.0625 34.1641 14.4688 35.7734 14.4688ZM45.3984 15.6719C42.9453 15.6719 41.4297 13.9375 41.4297 11.3281C41.4297 8.71875 42.9609 6.90625 45.2734 6.90625C47.0547 6.90625 48.9297 8 48.9297 11.1406V11.7031H42.7734C42.8359 13.5 43.8828 14.4844 45.3984 14.4844C46.4141 14.4844 47.0547 14.0469 47.3672 13.5156H48.8047C48.3984 14.7969 47.1484 15.6719 45.3984 15.6719ZM42.7891 10.5625H47.5703C47.5703 9.14062 46.6641 8.09375 45.2734 8.09375C43.8047 8.09375 42.8672 9.25 42.7891 10.5625ZM50.6797 15.5V7.01562H52.0234V15.5H50.6797ZM51.3516 5.60938C50.8359 5.60938 50.4141 5.21875 50.4141 4.71875C50.4141 4.21875 50.8359 3.82812 51.3516 3.82812C51.8672 3.82812 52.3047 4.21875 52.3047 4.71875C52.3047 5.21875 51.8672 5.60938 51.3516 5.60938ZM57.8672 7.01562V8.14062H56.0859V13.0625C56.0859 14.1562 56.6172 14.3281 57.1953 14.3281C57.4453 14.3281 57.7891 14.3125 57.9922 14.2969V15.5469C57.7891 15.5781 57.4453 15.6094 57.0547 15.6094C55.9297 15.6094 54.7266 14.9062 54.7266 13.4062V8.14062H53.4453V7.01562H54.7266V4.98438H56.0859V7.01562H57.8672ZM68.4766 9.23438V10.4688H63.5234V9.23438H68.4766ZM74.5391 15.5L74.5234 14.4688L78.3828 10.4062C79.7266 8.98438 80.3672 8.21875 80.3672 7.17188C80.3672 6.01562 79.3828 5.25 78.1172 5.25C76.7734 5.25 75.9141 6.10938 75.9141 7.375H74.5859C74.5703 5.375 76.1172 4.03125 78.1641 4.03125C80.2109 4.03125 81.6797 5.40625 81.6797 7.17188C81.6797 8.4375 81.0859 9.42188 79.0859 11.4844L76.4922 14.1562V14.25H81.8828V15.5H74.5391ZM87.6328 15.6562C85.1172 15.6562 83.6797 13.5469 83.6797 9.84375C83.6797 6.17188 85.1484 4.03125 87.6328 4.03125C90.1172 4.03125 91.5859 6.17188 91.5859 9.84375C91.5859 13.5469 90.1328 15.6562 87.6328 15.6562ZM87.6328 14.4062C89.2578 14.4062 90.2109 12.7656 90.2109 9.84375C90.2109 6.92188 89.2578 5.25 87.6328 5.25C86.0078 5.25 85.0391 6.92188 85.0391 9.84375C85.0391 12.7656 85.9922 14.4062 87.6328 14.4062ZM93.4609 15.5L93.4453 14.4688L97.3047 10.4062C98.6484 8.98438 99.2891 8.21875 99.2891 7.17188C99.2891 6.01562 98.3047 5.25 97.0391 5.25C95.6953 5.25 94.8359 6.10938 94.8359 7.375H93.5078C93.4922 5.375 95.0391 4.03125 97.0859 4.03125C99.1328 4.03125 100.602 5.40625 100.602 7.17188C100.602 8.4375 100.008 9.42188 98.0078 11.4844L95.4141 14.1562V14.25H100.805V15.5H93.4609ZM102.32 13.1875V12.0312L107.414 4.1875H109.148V11.9531H110.727V13.1875H109.148V15.5H107.805V13.1875H102.32ZM103.836 11.9531H107.805V5.96875H107.664L103.836 11.8594V11.9531Z" fill="#9CA3AF"/>
<path d="M680.234 15.5V4.1875H684.078C686.734 4.1875 687.938 5.76562 687.938 7.78125C687.938 9.78125 686.734 11.3906 684.094 11.3906H681.641V15.5H680.234ZM681.641 10.1406H684.031C685.828 10.1406 686.547 9.125 686.547 7.78125C686.547 6.42188 685.828 5.4375 684.016 5.4375H681.641V10.1406ZM689.734 15.5V7.01562H691.031V8.3125H691.125C691.438 7.45312 692.312 6.875 693.312 6.875C693.516 6.875 693.859 6.89062 694.016 6.90625V8.26562C693.922 8.23438 693.547 8.17188 693.203 8.17188C691.984 8.17188 691.078 9.01562 691.078 10.1562V15.5H689.734ZM695.328 15.5V7.01562H696.672V15.5H695.328ZM696 5.60938C695.484 5.60938 695.062 5.21875 695.062 4.71875C695.062 4.21875 695.484 3.82812 696 3.82812C696.516 3.82812 696.953 4.21875 696.953 4.71875C696.953 5.21875 696.516 5.60938 696 5.60938ZM705.797 7.01562L702.656 15.5H701.266L698.141 7.01562H699.609L701.922 13.75H702.016L704.328 7.01562H705.797ZM706.609 13.0938C706.609 11.1406 708.328 10.7031 709.797 10.5938C710.336 10.5547 711.711 10.4844 712.094 10.4688V9.78125C712.094 8.70312 711.453 8.07812 710.172 8.07812C709.094 8.07812 708.453 8.57812 708.266 9.21875H706.859C707.031 7.85938 708.359 6.90625 710.234 6.90625C711.344 6.90625 713.422 7.23438 713.422 9.90625V15.5H712.094V14.3438H712.031C711.75 14.9219 710.969 15.7031 709.5 15.7031C707.891 15.7031 706.609 14.75 706.609 13.0938ZM707.953 13.1562C707.953 14.0469 708.703 14.5 709.734 14.5C711.25 14.5 712.094 13.4844 712.094 12.4219V11.5625C711.695 11.5938 710.359 11.6953 709.953 11.7188C708.734 11.7969 707.953 12.2344 707.953 13.1562ZM719.047 15.6719C716.641 15.6719 715.172 13.8438 715.172 11.2969C715.172 8.71875 716.703 6.90625 719.016 6.90625C720.828 6.90625 722.172 7.96875 722.391 9.57812H721.047C720.859 8.79688 720.172 8.09375 719.047 8.09375C717.531 8.09375 716.516 9.34375 716.516 11.25C716.516 13.2188 717.5 14.4688 719.047 14.4688C720.047 14.4688 720.812 13.9375 721.047 13H722.391C722.172 14.5156 720.938 15.6719 719.047 15.6719ZM724.906 18.6875C724.609 18.6875 724.328 18.6719 724.156 18.6562V17.4531C724.297 17.4688 724.609 17.4844 724.812 17.4844C725.359 17.4844 725.812 17.4375 726.266 16.2031L726.516 15.5625L723.375 7.01562H724.844L727.156 13.75H727.25L729.562 7.01562H731.031L727.438 16.7188C726.938 18.0469 726.109 18.6875 724.906 18.6875ZM736.703 15.5V4.1875H740.547C743.203 4.1875 744.406 5.76562 744.406 7.78125C744.406 9.78125 743.203 11.3906 740.562 11.3906H738.109V15.5H736.703ZM738.109 10.1406H740.5C742.297 10.1406 743.016 9.125 743.016 7.78125C743.016 6.42188 742.297 5.4375 740.484 5.4375H738.109V10.1406ZM749.578 15.6719C747.266 15.6719 745.703 13.9375 745.703 11.2969C745.703 8.65625 747.266 6.90625 749.578 6.90625C751.875 6.90625 753.422 8.65625 753.422 11.2969C753.422 13.9375 751.875 15.6719 749.578 15.6719ZM749.578 14.4844C751.281 14.4844 752.078 12.9844 752.078 11.2969C752.078 9.60938 751.281 8.09375 749.578 8.09375C747.844 8.09375 747.047 9.60938 747.047 11.2969C747.047 12.9844 747.844 14.4844 749.578 14.4844ZM756.531 4.1875V15.5H755.188V4.1875H756.531ZM758.672 15.5V7.01562H760.016V15.5H758.672ZM759.344 5.60938C758.828 5.60938 758.406 5.21875 758.406 4.71875C758.406 4.21875 758.828 3.82812 759.344 3.82812C759.859 3.82812 760.297 4.21875 760.297 4.71875C760.297 5.21875 759.859 5.60938 759.344 5.60938ZM765.625 15.6719C763.219 15.6719 761.75 13.8438 761.75 11.2969C761.75 8.71875 763.281 6.90625 765.594 6.90625C767.406 6.90625 768.75 7.96875 768.969 9.57812H767.625C767.438 8.79688 766.75 8.09375 765.625 8.09375C764.109 8.09375 763.094 9.34375 763.094 11.25C763.094 13.2188 764.078 14.4688 765.625 14.4688C766.625 14.4688 767.391 13.9375 767.625 13H768.969C768.75 14.5156 767.516 15.6719 765.625 15.6719ZM771.484 18.6875C771.188 18.6875 770.906 18.6719 770.734 18.6562V17.4531C770.875 17.4688 771.188 17.4844 771.391 17.4844C771.938 17.4844 772.391 17.4375 772.844 16.2031L773.094 15.5625L769.953 7.01562H771.422L773.734 13.75H773.828L776.141 7.01562H777.609L774.016 16.7188C773.516 18.0469 772.688 18.6875 771.484 18.6875Z" fill="#E5E7EB"/>
<path d="M809.797 15.5V4.1875H816.609V5.4375H811.203V9.21875H816.094V10.4531H811.203V15.5H809.797ZM817.781 15.5H816.312L820.453 4.1875H821.938L826.078 15.5H824.594L823.469 12.3125H818.922L817.781 15.5ZM819.344 11.0781H823.031L821.234 6.01562H821.141L819.344 11.0781ZM831.172 11.9531H832.703L833.906 13.5156C834.75 12.7812 835.281 11.5391 835.281 9.84375C835.281 6.92188 833.688 5.34375 831.641 5.34375C829.594 5.34375 828 6.92188 828 9.84375C828 12.7656 829.594 14.3438 831.641 14.3438C832.062 14.3438 832.469 14.2734 832.844 14.1406L831.172 11.9531ZM836.641 9.84375C836.641 11.9531 835.906 13.6016 834.719 14.5938L836.188 16.5625H834.656L833.672 15.2344C833.055 15.5156 832.375 15.6562 831.641 15.6562C828.734 15.6562 826.641 13.4219 826.641 9.84375C826.641 6.26562 828.734 4.03125 831.641 4.03125C834.531 4.03125 836.641 6.26562 836.641 9.84375Z" fill="#E5E7EB"/>
<path fill-rule="evenodd" clip-rule="evenodd" d="M1405 9.90316C1405 14.3777 1408.25 18.0984 1412.5 18.8529V12.3527H1410.25V9.85291H1412.5V7.85266C1412.5 5.60266 1413.95 4.35316 1416 4.35316C1416.65 4.35316 1417.35 4.45291 1418 4.55266V6.85291H1416.85C1415.75 6.85291 1415.5 7.40266 1415.5 8.10316V9.85291H1417.9L1417.5 12.3527H1415.5V18.8529C1419.75 18.0984 1423 14.3784 1423 9.90316C1423 4.92541 1418.95 0.852905 1414 0.852905C1409.05 0.852905 1405 4.92541 1405 9.90316Z" fill="white"/>
<path d="M1455.7 4.11415C1455.01 4.42248 1454.26 4.63082 1453.47 4.72498C1454.28 4.23981 1454.89 3.4762 1455.18 2.57665C1454.42 3.02914 1453.58 3.34765 1452.72 3.51832C1452.13 2.89404 1451.36 2.48025 1450.51 2.34121C1449.67 2.20217 1448.8 2.34564 1448.05 2.74936C1447.29 3.15308 1446.69 3.79445 1446.34 4.5739C1445.99 5.35335 1445.91 6.22727 1446.1 7.05998C1444.56 6.98248 1443.05 6.58127 1441.67 5.8824C1440.29 5.18353 1439.07 4.20262 1438.1 3.00332C1437.77 3.57832 1437.57 4.24498 1437.57 4.95498C1437.57 5.59415 1437.73 6.22352 1438.03 6.78726C1438.33 7.351 1438.77 7.83168 1439.3 8.18665C1438.68 8.16704 1438.08 8.00047 1437.54 7.70082V7.75082C1437.54 8.64727 1437.85 9.51613 1438.42 10.21C1438.99 10.9038 1439.78 11.3799 1440.66 11.5575C1440.08 11.7122 1439.48 11.735 1438.9 11.6242C1439.15 12.3955 1439.63 13.07 1440.28 13.5533C1440.93 14.0365 1441.72 14.3043 1442.53 14.3192C1441.15 15.3987 1439.46 15.9842 1437.71 15.9816C1437.4 15.9817 1437.09 15.9636 1436.78 15.9275C1438.56 17.0685 1440.62 17.674 1442.73 17.6716C1449.87 17.6716 1453.78 11.7566 1453.78 6.62665C1453.78 6.45998 1453.77 6.29165 1453.77 6.12498C1454.52 5.57579 1455.18 4.89573 1455.7 4.11665L1455.7 4.11415Z" fill="white"/>
<g clip-path="url(#clip0_47455_378)">
<path d="M1487.58 5.4224C1487.47 5.01843 1487.25 4.65269 1486.94 4.36407C1486.63 4.06657 1486.25 3.85376 1485.83 3.74573C1484.26 3.33323 1477.99 3.33323 1477.99 3.33323C1475.38 3.30349 1472.77 3.4343 1470.17 3.7249C1469.75 3.84091 1469.37 4.05847 1469.05 4.35823C1468.75 4.6549 1468.52 5.02073 1468.41 5.42157C1468.13 6.93135 1467.99 8.46435 1468 9.9999C1467.99 11.5341 1468.13 13.0666 1468.41 14.5782C1468.52 14.9774 1468.74 15.3416 1469.05 15.6357C1469.36 15.9299 1469.75 16.1424 1470.17 16.2549C1471.76 16.6666 1477.99 16.6666 1477.99 16.6666C1480.61 16.6963 1483.23 16.5655 1485.83 16.2749C1486.25 16.1669 1486.63 15.9541 1486.94 15.6566C1487.25 15.368 1487.47 15.0022 1487.58 14.5982C1487.87 13.089 1488.01 11.5554 1488 10.0191C1488.02 8.47624 1487.88 6.93537 1487.58 5.42157V5.4224ZM1476 12.8532V7.1474L1481.22 10.0007L1476 12.8532Z" fill="white"/>
</g>
<path d="M1509.5 7.51837C1507.94 7.51837 1506.66 8.7921 1506.66 10.3529C1506.66 11.9137 1507.94 13.1874 1509.5 13.1874C1511.06 13.1874 1512.33 11.9137 1512.33 10.3529C1512.33 8.7921 1511.06 7.51837 1509.5 7.51837ZM1518 10.3529C1518 9.17911 1518.01 8.01595 1517.94 6.84428C1517.88 5.48337 1517.57 4.27555 1516.57 3.28038C1515.58 2.28308 1514.37 1.97474 1513.01 1.90883C1511.83 1.84291 1510.67 1.85354 1509.5 1.85354C1508.33 1.85354 1507.16 1.84291 1505.99 1.90883C1504.63 1.97474 1503.42 2.2852 1502.43 3.28038C1501.43 4.27768 1501.12 5.48337 1501.06 6.84428C1500.99 8.01808 1501 9.18124 1501 10.3529C1501 11.5246 1500.99 12.6899 1501.06 13.8615C1501.12 15.2224 1501.43 16.4303 1502.43 17.4254C1503.42 18.4227 1504.63 18.7311 1505.99 18.797C1507.17 18.8629 1508.33 18.8523 1509.5 18.8523C1510.67 18.8523 1511.84 18.8629 1513.01 18.797C1514.37 18.7311 1515.58 18.4206 1516.57 17.4254C1517.57 16.4281 1517.88 15.2224 1517.94 13.8615C1518.01 12.6899 1518 11.5267 1518 10.3529ZM1509.5 14.7142C1507.08 14.7142 1505.14 12.7664 1505.14 10.3529C1505.14 7.9394 1507.08 5.99158 1509.5 5.99158C1511.91 5.99158 1513.86 7.9394 1513.86 10.3529C1513.86 12.7664 1511.91 14.7142 1509.5 14.7142ZM1514.04 6.83153C1513.47 6.83153 1513.02 6.37647 1513.02 5.81296C1513.02 5.24946 1513.47 4.7944 1514.04 4.7944C1514.6 4.7944 1515.06 5.24946 1515.06 5.81296C1515.06 5.94677 1515.03 6.0793 1514.98 6.20295C1514.93 6.3266 1514.85 6.43895 1514.76 6.53357C1514.66 6.62819 1514.55 6.70321 1514.43 6.75433C1514.3 6.80546 1514.17 6.83169 1514.04 6.83153Z" fill="white"/>
<defs>
<clipPath id="clip0_47455_378">
<rect width="20" height="20" fill="white" transform="translate(1468)"/>
</clipPath>
</defs>
</svg>
