<svg width="396" height="132" viewBox="0 0 396 132" fill="none" xmlns="http://www.w3.org/2000/svg">
<rect y="12.9847" width="103.529" height="103.88" rx="28.9317" fill="#3692FF"/>
<path d="M49.99 41.9063C51.2823 46.3722 47.8653 51.2933 43.9486 52.4344C40.0318 53.5755 34.6807 51.2088 33.3884 46.7429C32.0961 42.2769 34.809 36.089 38.7258 34.9479C43.9486 33.4264 48.6977 37.4403 49.99 41.9063Z" fill="#222327"/>
<path d="M52.1438 41.9063C50.8514 46.3722 54.2684 51.2933 58.1852 52.4344C62.102 53.5755 67.4531 51.2088 68.7454 46.7429C70.0377 42.2769 67.3248 36.089 63.408 34.9479C58.1852 33.4264 53.4361 37.4403 52.1438 41.9063Z" fill="#222327"/>
<path d="M76.3971 74.5325C76.3971 85.8918 65.2589 90.1142 50.0657 90.1142C34.8725 90.1142 23.9863 85.8918 23.9863 74.5325C23.9863 61.3192 34.8725 49.6018 50.0657 49.6018C65.2589 49.6018 76.3971 60.322 76.3971 74.5325Z" fill="#F3D6DD"/>
<path d="M45.0365 72.2897C45.0365 76.01 42.6485 80.0913 39.3115 80.0913C35.9745 80.0913 30.584 77.06 30.584 71.5026C30.584 66.282 36.4074 64.4253 42.4249 65.3787C46.1131 65.963 45.0365 68.5694 45.0365 72.2897Z" fill="#222327"/>
<path d="M42.2451 71.9142C42.2451 72.4722 42.0773 72.9246 41.2381 72.9246C40.3989 72.9246 40.2311 72.4722 40.2311 71.9142C40.2311 71.3561 40.5668 70.9038 41.2381 70.9038C41.9095 70.9038 42.2451 71.3561 42.2451 71.9142Z" fill="white"/>
<path d="M55.1866 72.29C55.1866 76.0103 57.5745 80.0916 60.9115 80.0916C64.2485 80.0916 69.639 77.0603 69.639 71.5029C69.639 66.2823 63.8156 64.4256 57.7981 65.3789C54.1099 65.9633 55.1866 68.5697 55.1866 72.29Z" fill="#222327"/>
<path d="M57.9809 71.9142C57.9809 72.4722 58.1488 72.9246 58.988 72.9246C59.8272 72.9246 59.995 72.4722 59.995 71.9142C59.995 71.3561 59.6593 70.9038 58.988 70.9038C58.3166 70.9038 57.9809 71.3561 57.9809 71.9142Z" fill="white"/>
<path d="M46.2655 77.6709C46.0623 77.3743 45.6572 77.2986 45.3606 77.5018C45.064 77.705 44.9883 78.1102 45.1915 78.4068L46.2655 77.6709ZM49.999 76.8702L50.6148 76.6592C50.5247 76.396 50.2772 76.2192 49.999 76.2192C49.7208 76.2192 49.4734 76.396 49.3832 76.6592L49.999 76.8702ZM54.8065 78.4068C55.0097 78.1102 54.934 77.705 54.6375 77.5018C54.3409 77.2986 53.9357 77.3743 53.7325 77.6709L54.8065 78.4068ZM45.1915 78.4068C45.3714 78.6692 45.698 79.0211 46.136 79.3117C46.5781 79.6049 47.1686 79.8584 47.8638 79.8584V78.5565C47.4913 78.5565 47.1477 78.4204 46.8557 78.2268C46.5598 78.0304 46.3526 77.798 46.2655 77.6709L45.1915 78.4068ZM47.8638 79.8584C48.7192 79.8584 49.3555 79.2482 49.7515 78.7228C50.1696 78.168 50.4651 77.5182 50.6148 77.0812L49.3832 76.6592C49.266 77.0012 49.0277 77.5201 48.7118 77.9392C48.3738 78.3876 48.0759 78.5565 47.8638 78.5565V79.8584ZM49.3832 77.0812C49.5329 77.5182 49.8284 78.168 50.2465 78.7228C50.6425 79.2482 51.2788 79.8584 52.1343 79.8584V78.5565C51.9221 78.5565 51.6242 78.3876 51.2862 77.9392C50.9703 77.5201 50.732 77.0012 50.6148 76.6592L49.3832 77.0812ZM52.1343 79.8584C52.8294 79.8584 53.42 79.6049 53.862 79.3117C54.3 79.0211 54.6267 78.6692 54.8065 78.4068L53.7325 77.6709C53.6455 77.798 53.4383 78.0304 53.1423 78.2268C52.8504 78.4204 52.5068 78.5565 52.1343 78.5565V79.8584Z" fill="#222327"/>
<path d="M53.5531 76.2695C53.5531 76.811 51.1149 77.5002 50.2943 77.7168C50.1189 77.7631 49.9381 77.7631 49.7627 77.7168C48.9421 77.5002 46.5039 76.811 46.5039 76.2695C46.5039 75.6184 48.4527 74.9223 50.0285 74.9223C51.6043 74.9223 53.5531 75.6184 53.5531 76.2695Z" fill="#222327"/>
<path d="M49.6071 58.9514C39.8126 58.9514 36.2132 55.5105 35.6309 53.4978L40.2896 48.4338L50.3835 46.6809L64.3597 53.4978C63.5185 55.1209 59.4123 58.9514 49.6071 58.9514Z" fill="#222327"/>
<path fill-rule="evenodd" clip-rule="evenodd" d="M50.9625 95.7635C71.2025 95.7635 86.0405 90.0591 86.0405 74.7128C86.0405 55.5145 71.2025 41.0317 50.9625 41.0317C30.7224 41.0317 16.2201 56.8618 16.2201 74.7128C16.2201 90.0591 30.7224 95.7635 50.9625 95.7635ZM50.1667 89.8699C65.0548 89.8699 75.9693 85.6925 75.9693 74.4543C75.9693 60.3953 65.0548 49.7893 50.1667 49.7893C35.2786 49.7893 24.611 61.3819 24.611 74.4543C24.611 85.6925 35.2786 89.8699 50.1667 89.8699Z" fill="white"/>
<path d="M183.487 55.3345H191.448V64.6227H183.487V83.4645H171.545V71.7879C163.053 73.5128 154.627 74.4417 142.353 74.4417H128.421V65.3525H133.728V46.5107H129.748V37.5542H166.37V46.5107H162.389V64.3573C165.64 63.9593 168.692 63.4948 171.545 62.9641V36.8907H183.487V55.3345ZM134.989 99.2545V79.5502H147.196V90.0326H184.813V99.2545H134.989ZM145.67 65.3525C147.329 65.2861 148.921 65.2861 150.447 65.2198V46.5107H145.67V65.3525ZM257.792 59.9786V69.2668H249.831V99.2545H237.889V88.8384C229.397 91.2931 220.971 92.6864 208.697 92.6864H196.755V38.8811H230.724V47.8376H208.697V83.5972C220.839 83.5972 229.463 82.403 237.889 80.0146V36.8907H249.831V59.9786H257.792ZM324.137 59.9786V69.2668H316.175V99.2545H304.233V36.8907H316.175V59.9786H324.137ZM263.1 92.6864V38.8811H297.798V92.6864H263.1ZM275.042 83.5972H285.989V47.9702H275.042V83.5972ZM374.89 36.8907H386.5V72.8494H374.89V36.8907ZM325.464 65.7506C333.226 64.1583 339.064 61.7035 342.315 58.5854L329.444 59.3815V50.7567H345.102V46.5107H330.771V37.5542H356.712V49.4962H360.493V37.2225H371.772V72.8494H360.493V58.7844H354.987C351.471 65.6179 342.647 71.2571 329.245 74.6407L325.464 65.7506ZM332.695 89.7672C349.082 89.1701 353.859 85.7866 353.859 80.0146V74.9724H365.801V81.0761C365.801 82.6684 365.602 84.1943 365.204 85.5875C372.9 86.1183 380.529 87.1798 386.5 88.573L383.316 99.2545C376.482 96.8661 366.929 94.544 359.233 93.2835C353.726 96.9988 344.903 98.7901 333.956 99.2545L332.695 89.7672Z" fill="#3692FF"/>
</svg>
