<svg width="588" height="444" viewBox="0 0 588 444" fill="none" xmlns="http://www.w3.org/2000/svg">
<g clip-path="url(#clip0_45011_30409)">
<rect width="588" height="444" rx="12" fill="#F3F4F6"/>
<g opacity="0.5" clip-path="url(#clip1_45011_30409)">
<path d="M-43.6328 328.56C-43.6328 323.79 -39.7659 319.923 -34.9959 319.923H82.4842C87.2543 319.923 91.1212 323.79 91.1212 328.56V398.572C91.1212 401.752 88.5432 404.33 85.3632 404.33H-37.8748C-41.0549 404.33 -43.6328 401.752 -43.6328 398.572V328.56Z" fill="#0C7AFF"/>
<path d="M-45.6367 305C-40.8668 305 -37.0001 308.867 -37 313.637V336.212H95.7295C98.9094 336.212 101.487 338.79 101.487 341.97V487.42C101.487 490.6 98.9095 493.178 95.7295 493.178H-125.242C-128.422 493.178 -131 490.6 -131 487.42V313.637C-131 308.867 -127.133 305 -122.363 305H-45.6367Z" fill="#3692FF"/>
</g>
<g opacity="0.5" clip-path="url(#clip2_45011_30409)">
<path d="M573.367 328.56C573.367 323.79 577.234 319.923 582.004 319.923H699.484C704.254 319.923 708.121 323.79 708.121 328.56V398.572C708.121 401.752 705.543 404.33 702.363 404.33H579.125C575.945 404.33 573.367 401.752 573.367 398.572V328.56Z" fill="#0C7AFF"/>
<path d="M571.363 305C576.133 305 580 308.867 580 313.637V336.212H712.729C715.909 336.212 718.487 338.79 718.487 341.97V487.42C718.487 490.6 715.91 493.178 712.729 493.178H491.758C488.578 493.178 486 490.6 486 487.42V313.637C486 308.867 489.867 305 494.637 305H571.363Z" fill="#3692FF"/>
</g>
</g>
<g clip-path="url(#clip3_45011_30409)">
<path d="M264.367 328.195C264.367 323.425 268.234 319.558 273.004 319.558H390.484C395.254 319.558 399.121 323.425 399.121 328.195V398.206C399.121 401.386 396.543 403.964 393.363 403.964H270.125C266.945 403.964 264.367 401.386 264.367 398.206V328.195Z" fill="#0C7AFF"/>
<path d="M262.363 304.634C267.133 304.634 271 308.501 271 313.271V335.846H403.729C406.909 335.846 409.487 338.424 409.487 341.604V487.054C409.487 490.234 406.91 492.812 403.729 492.812H182.758C179.578 492.812 177 490.234 177 487.054V313.271C177 308.501 180.867 304.634 185.637 304.634H262.363Z" fill="#3692FF"/>
</g>
<path d="M76 127.711C76 118.62 83.3697 111.25 92.4607 111.25H190.539C199.63 111.25 207 118.62 207 127.711V230.546C207 237.174 201.627 242.546 195 242.546H88C81.3726 242.546 76 237.174 76 230.546V127.711Z" fill="#8698FF"/>
<path d="M124.306 143.469L127.394 130.549C127.571 129.806 128.579 129.688 128.922 130.37L134.896 142.227L141.928 202.586L131.337 203.828L124.306 143.469Z" fill="#E02D2C"/>
<path d="M127.327 130.557C127.505 129.814 128.512 129.696 128.855 130.377L134.085 140.749C132.66 141.78 130.96 142.474 129.09 142.694C127.501 142.881 125.954 142.705 124.528 142.237L127.327 130.557Z" fill="white"/>
<path d="M127.303 130.559C127.481 129.817 128.488 129.699 128.832 130.38L130.233 133.16C129.704 133.421 129.123 133.598 128.505 133.671C127.844 133.749 127.196 133.7 126.587 133.547L127.303 130.559Z" fill="#E02D2C"/>
<path d="M149.326 142.226L155.304 130.371C155.648 129.689 156.655 129.808 156.833 130.551L159.916 143.472L152.863 203.829L142.273 202.583L149.326 142.226Z" fill="#292424"/>
<path d="M155.225 130.36C155.569 129.68 156.574 129.799 156.752 130.541L159.46 141.858C157.841 142.524 156.035 142.802 154.172 142.582C152.576 142.394 151.104 141.86 149.82 141.067L155.225 130.36Z" fill="white"/>
<path d="M155.294 130.061C155.638 129.381 156.643 129.499 156.821 130.241L157.548 133.28C156.98 133.406 156.382 133.442 155.771 133.37C155.102 133.291 154.476 133.09 153.913 132.793L155.294 130.061Z" fill="#292424"/>
<path d="M118.523 166.747C118.523 164.032 120.725 161.831 123.44 161.831H160.722C163.438 161.831 165.639 164.032 165.639 166.747V208.55C165.639 215.177 160.266 220.55 153.639 220.55H130.523C123.896 220.55 118.523 215.177 118.523 208.55V166.747Z" fill="#5F76FF"/>
<rect x="118.523" y="178.255" width="47.1153" height="20.9418" fill="#FFD875"/>
<path d="M237 127.711C237 118.62 244.37 111.25 253.461 111.25H351.539C360.63 111.25 368 118.62 368 127.711V230.546C368 237.174 362.627 242.546 356 242.546H249C242.373 242.546 237 237.174 237 230.546V127.711Z" fill="#B9D9FF"/>
<path d="M271.979 138.547L327.536 134.944C330.219 134.77 332.491 136.899 332.491 139.588V211.31C332.491 213.88 330.407 215.963 327.837 215.963H271.979V138.547Z" fill="#F3F4F6"/>
<path d="M271.979 138.547L328.739 140.862C331.233 140.964 333.203 143.015 333.203 145.512V214.27C333.203 216.936 330.968 219.057 328.306 218.917L271.979 215.963V138.547Z" fill="#4E93EF"/>
<path d="M308.643 139.974L322.169 140.509V160.309L315.406 156.242L308.643 160.309V139.974Z" fill="white"/>
<path d="M393 127.083C393 118.339 400.088 111.25 408.832 111.25H508.168C516.912 111.25 524 118.339 524 127.083V230.546C524 237.174 518.627 242.546 512 242.546H405C398.373 242.546 393 237.174 393 230.546V127.083Z" fill="#FFB9E3"/>
<path d="M451.793 179.78C451.996 179.112 453.501 177.775 457.893 177.775C462.285 177.775 463.993 179.112 464.298 179.78" stroke="#FF46C0" stroke-width="3.84902"/>
<path d="M440.196 169.13C446.481 169.13 451.144 173.671 451.325 179.036V179.378C451.325 182.288 450.112 184.815 448.053 186.555L447.03 187.42V187.538C446.76 187.751 446.45 187.995 446.111 188.267C444.966 189.186 443.433 190.43 441.767 191.785C438.434 194.494 434.565 197.645 432.092 199.616C431.774 199.846 431.21 199.847 430.893 199.616C428.423 197.649 424.498 194.443 421.146 191.69C419.468 190.311 417.937 189.048 416.812 188.119C415.624 187.136 415.008 186.622 415.025 186.638C412.842 184.625 411.66 182.034 411.66 179.378V179.024C411.847 173.927 416.676 169.339 422.789 169.339C423.607 169.339 424.75 169.607 425.913 170.184C426.99 170.719 427.883 171.424 428.46 172.151C429.833 174.642 433.571 174.584 434.837 171.98C435.283 171.276 436.116 170.552 437.222 169.984C438.382 169.387 439.512 169.13 440.196 169.13Z" stroke="#FF68CC" stroke-width="5.77353"/>
<path d="M492.22 169.13C498.504 169.13 503.168 173.671 503.349 179.036V179.378C503.349 182.288 502.135 184.815 500.076 186.555L499.054 187.42V187.538C498.784 187.751 498.473 187.995 498.135 188.267C496.989 189.186 495.457 190.43 493.79 191.785C490.457 194.494 486.588 197.645 484.115 199.616C483.798 199.846 483.233 199.847 482.916 199.616C480.447 197.649 476.521 194.443 473.17 191.69C471.491 190.311 469.96 189.048 468.836 188.119C467.647 187.136 467.031 186.622 467.049 186.638C464.866 184.625 463.684 182.034 463.684 179.378V179.024C463.871 173.927 468.699 169.339 474.812 169.339C475.63 169.339 476.774 169.607 477.937 170.184C479.013 170.719 479.907 171.424 480.483 172.151C481.857 174.642 485.594 174.584 486.86 171.98C487.306 171.276 488.14 170.552 489.245 169.984C490.405 169.387 491.535 169.13 492.22 169.13Z" stroke="#FF68CC" stroke-width="5.77353"/>
<path d="M414.53 140.505C414.61 140.035 415.285 140.035 415.365 140.505L415.718 142.573C416.404 146.59 418.962 150.041 422.606 151.865C422.842 151.983 422.842 152.32 422.606 152.438C418.962 154.262 416.404 157.713 415.718 161.73L415.365 163.798C415.285 164.268 414.61 164.268 414.53 163.798L414.176 161.73C413.49 157.713 410.932 154.262 407.288 152.438C407.053 152.32 407.053 151.983 407.288 151.865C410.932 150.041 413.49 146.59 414.176 142.573L414.53 140.505Z" fill="white"/>
<path d="M430.801 136.196C430.851 135.897 431.28 135.897 431.331 136.196L431.555 137.526C431.979 140.049 433.575 142.22 435.856 143.379C436.003 143.454 436.003 143.664 435.856 143.739C433.575 144.897 431.979 147.069 431.555 149.592L431.331 150.922C431.28 151.221 430.851 151.221 430.801 150.922L430.577 149.592C430.152 147.069 428.556 144.897 426.276 143.739C426.129 143.664 426.129 143.454 426.276 143.379C428.556 142.22 430.152 140.049 430.577 137.526L430.801 136.196Z" fill="white"/>
<path d="M413.487 266.107C411.671 263.329 412.448 259.6 415.222 257.778C417.996 255.957 421.717 256.732 423.533 259.51L506.272 386.099C508.087 388.877 507.311 392.606 504.536 394.427C501.762 396.249 498.041 395.474 496.226 392.696L413.487 266.107Z" fill="#374151"/>
<path d="M415.222 257.779C417.996 255.957 421.717 256.732 423.533 259.511L429.006 267.884L418.96 274.482L413.486 266.107C411.671 263.329 412.448 259.6 415.222 257.779Z" fill="#3692FF"/>
<path d="M418.967 274.486L429.006 267.894C429.913 269.282 429.525 271.145 428.139 272.056L423.119 275.352C421.733 276.262 419.874 275.874 418.967 274.486Z" fill="#111827"/>
<defs>
<clipPath id="clip0_45011_30409">
<path d="M0 0H588V432C588 438.627 582.627 444 576 444H12C5.37258 444 0 438.627 0 432V0Z" fill="white"/>
</clipPath>
<clipPath id="clip1_45011_30409">
<rect width="293" height="162" fill="white" transform="translate(-159 282)"/>
</clipPath>
<clipPath id="clip2_45011_30409">
<rect width="293" height="162" fill="white" transform="translate(458 282)"/>
</clipPath>
<clipPath id="clip3_45011_30409">
<path d="M149 281.634H442V432C442 438.627 436.627 444 430 444H161C154.373 444 149 438.627 149 432V281.634Z" fill="white"/>
</clipPath>
</defs>
</svg>
