<svg width="40" height="41" viewBox="0 0 40 41" fill="none" xmlns="http://www.w3.org/2000/svg">
<rect y="0.0168152" width="40" height="40.1354" rx="11.1782" fill="#3692FF"/>
<path d="M19.3143 11.1914C19.8136 12.9169 18.4934 14.8182 16.9801 15.2591C15.4668 15.7 13.3994 14.7856 12.9001 13.0601C12.4008 11.3346 13.4489 8.94385 14.9622 8.50297C16.9801 7.9151 18.815 9.46594 19.3143 11.1914Z" fill="#222327"/>
<path d="M20.1466 11.1914C19.6473 12.9169 20.9675 14.8182 22.4808 15.2591C23.9941 15.7 26.0616 14.7856 26.5609 13.0601C27.0602 11.3346 26.012 8.94385 24.4987 8.50297C22.4808 7.9151 20.6459 9.46594 20.1466 11.1914Z" fill="#222327"/>
<path d="M29.5167 23.7966C29.5167 28.1854 25.2133 29.8168 19.3432 29.8168C13.4731 29.8168 9.26709 28.1854 9.26709 23.7966C9.26709 18.6915 13.4731 14.1643 19.3432 14.1643C25.2133 14.1643 29.5167 18.3062 29.5167 23.7966Z" fill="#F3D6DD"/>
<path d="M17.4003 22.9301C17.4003 24.3675 16.4777 25.9443 15.1884 25.9443C13.8991 25.9443 11.8164 24.7731 11.8164 22.626C11.8164 20.6089 14.0664 19.8916 16.3913 20.2599C17.8163 20.4857 17.4003 21.4927 17.4003 22.9301Z" fill="#222327"/>
<path d="M16.3221 22.785C16.3221 23.0006 16.2573 23.1754 15.933 23.1754C15.6088 23.1754 15.5439 23.0006 15.5439 22.785C15.5439 22.5694 15.6736 22.3946 15.933 22.3946C16.1924 22.3946 16.3221 22.5694 16.3221 22.785Z" fill="white"/>
<path d="M21.3223 22.9301C21.3223 24.3675 22.2449 25.9443 23.5342 25.9443C24.8235 25.9443 26.9062 24.7731 26.9062 22.626C26.9062 20.6089 24.6563 19.8916 22.3313 20.2599C20.9064 20.4857 21.3223 21.4927 21.3223 22.9301Z" fill="#222327"/>
<path d="M22.4015 22.7851C22.4015 23.0007 22.4664 23.1755 22.7906 23.1755C23.1148 23.1755 23.1797 23.0007 23.1797 22.7851C23.1797 22.5695 23.05 22.3947 22.7906 22.3947C22.5312 22.3947 22.4015 22.5695 22.4015 22.7851Z" fill="white"/>
<path d="M17.875 25.0098C17.7964 24.8952 17.6399 24.8659 17.5253 24.9444C17.4107 25.023 17.3815 25.1795 17.46 25.2941L17.6675 25.1519L17.875 25.0098ZM19.3174 24.7004L19.5554 24.6189C19.5205 24.5172 19.4249 24.4489 19.3174 24.4489C19.21 24.4489 19.1144 24.5172 19.0795 24.6189L19.3174 24.7004ZM21.1749 25.2941C21.2534 25.1795 21.2242 25.023 21.1096 24.9444C20.995 24.8659 20.8385 24.8952 20.7599 25.0098L20.9674 25.1519L21.1749 25.2941ZM17.6675 25.1519L17.46 25.2941C17.5295 25.3955 17.6557 25.5314 17.8249 25.6437C17.9957 25.757 18.2239 25.8549 18.4925 25.8549V25.6034V25.3519C18.3485 25.3519 18.2158 25.2994 18.103 25.2245C17.9886 25.1487 17.9086 25.0589 17.875 25.0098L17.6675 25.1519ZM18.4925 25.6034V25.8549C18.823 25.8549 19.0688 25.6192 19.2218 25.4162C19.3834 25.2018 19.4975 24.9508 19.5554 24.7819L19.3174 24.7004L19.0795 24.6189C19.0342 24.751 18.9422 24.9515 18.8201 25.1134C18.6895 25.2867 18.5744 25.3519 18.4925 25.3519V25.6034ZM19.3174 24.7004L19.0795 24.7819C19.1374 24.9508 19.2515 25.2018 19.4131 25.4162C19.5661 25.6192 19.8119 25.8549 20.1424 25.8549V25.6034V25.3519C20.0605 25.3519 19.9454 25.2867 19.8148 25.1134C19.6927 24.9515 19.6006 24.751 19.5554 24.6189L19.3174 24.7004ZM20.1424 25.6034V25.8549C20.411 25.8549 20.6392 25.757 20.81 25.6437C20.9792 25.5314 21.1054 25.3955 21.1749 25.2941L20.9674 25.1519L20.7599 25.0098C20.7263 25.0589 20.6463 25.1487 20.5319 25.2245C20.4191 25.2994 20.2863 25.3519 20.1424 25.3519V25.6034Z" fill="#222327"/>
<path d="M20.6903 24.468C20.6903 24.6772 19.7483 24.9435 19.4313 25.0272C19.3635 25.0451 19.2936 25.0451 19.2259 25.0272C18.9088 24.9435 17.9668 24.6772 17.9668 24.468C17.9668 24.2165 18.7197 23.9475 19.3286 23.9475C19.9374 23.9475 20.6903 24.2165 20.6903 24.468Z" fill="#222327"/>
<path d="M19.166 17.7763C15.3818 17.7763 13.9911 16.4468 13.7661 15.6692L15.5661 13.7126L19.466 13.0354L24.8659 15.6692C24.5409 16.2963 22.9544 17.7763 19.166 17.7763Z" fill="#222327"/>
<path d="M19.6895 10.8528C27.5093 10.8528 33.2429 16.4482 33.2432 23.8654C33.2432 29.7947 27.5095 31.9992 19.6895 31.9992C11.8696 31.9992 6.2666 29.7946 6.2666 23.8654C6.26685 16.9688 11.8698 10.8529 19.6895 10.8528ZM19.3828 14.2365C13.6307 14.2365 9.5089 18.7152 9.50879 23.7658C9.50879 28.1079 13.6306 29.7219 19.3828 29.7219C25.1348 29.7218 29.3516 28.1078 29.3516 23.7658C29.3515 18.3342 25.1347 14.2368 19.3828 14.2365Z" fill="white"/>
</svg>
