<svg width="696" height="524" viewBox="0 0 696 524" fill="none" xmlns="http://www.w3.org/2000/svg">
<g clip-path="url(#clip0_46489_1752)">
<rect width="688.876" height="520.172" rx="14.0587" fill="#F3F4F6"/>
<rect x="60.9209" y="188.621" width="155.817" height="155.817" rx="25.7743" fill="#F9FAFB"/>
<rect x="-123.014" y="188.621" width="155.817" height="155.817" rx="25.7743" fill="#F9FAFB"/>
<rect x="472.138" y="188.621" width="155.817" height="155.817" rx="25.7743" fill="#F9FAFB"/>
<rect x="656.072" y="188.621" width="155.817" height="155.817" rx="25.7743" fill="#F9FAFB"/>
</g>
<rect x="247.388" y="169.146" width="201.225" height="201.084" rx="25.7743" fill="#E5E7EB"/>
<rect x="247.387" y="169.145" width="201.225" height="201.084" rx="25.7743" fill="url(#paint0_linear_46489_1752)"/>
<path d="M335.372 289.342C335.372 274.729 338.842 270.271 345.534 265.936C351.111 262.345 355.324 259.249 355.324 254.171C355.324 249.589 351.606 246.493 347.021 246.493C342.188 246.493 337.974 250.084 337.85 255.41H316.039C316.287 236.338 330.291 228.288 347.145 228.288C365.734 228.288 379.366 236.586 379.366 252.933C379.366 263.459 373.666 269.775 365.115 274.729C358.67 278.568 355.448 282.159 355.448 289.342V291.324H335.372V289.342ZM345.658 320.55C338.966 320.55 333.513 315.225 333.637 308.538C333.513 301.974 338.966 296.649 345.658 296.649C351.978 296.649 357.679 301.974 357.679 308.538C357.679 315.225 351.978 320.55 345.658 320.55Z" fill="#D1D5DB"/>
<path d="M513.839 413.582C517.182 416.921 522.598 416.919 525.938 413.577C529.277 410.235 529.276 404.819 525.934 401.479L519.887 407.53L513.839 413.582ZM468.734 356.414L462.687 362.465L513.839 413.582L519.887 407.53L525.934 401.479L474.781 350.363L468.734 356.414Z" fill="#3692FF"/>
<path d="M423.926 248.671C458.524 248.671 486.562 276.698 486.562 311.258C486.561 345.817 458.524 373.844 423.926 373.844C389.327 373.844 361.289 345.818 361.289 311.258C361.289 276.698 389.327 248.671 423.926 248.671Z" stroke="black" stroke-width="17.1096"/>
<defs>
<linearGradient id="paint0_linear_46489_1752" x1="279.346" y1="178.017" x2="422.435" y2="384.517" gradientUnits="userSpaceOnUse">
<stop stop-color="#BFD5FF"/>
<stop offset="1" stop-color="#E5E7EB" stop-opacity="0"/>
</linearGradient>
<clipPath id="clip0_46489_1752">
<rect width="696" height="524" fill="white"/>
</clipPath>
</defs>
</svg>
