<svg width="589" height="444" viewBox="0 0 589 444" fill="none" xmlns="http://www.w3.org/2000/svg">
<g clip-path="url(#clip0_46511_4339)">
<rect x="0.5" width="588" height="444" rx="12" fill="#F3F4F6"/>
<g opacity="0.5" clip-path="url(#clip1_46511_4339)">
<path d="M-43.1318 328.56C-43.1318 323.79 -39.2649 319.923 -34.4949 319.923H82.9852C87.7552 319.923 91.6221 323.79 91.6221 328.56V398.571C91.6221 401.751 89.0442 404.329 85.8642 404.329H-37.3739C-40.5539 404.329 -43.1318 401.751 -43.1318 398.571V328.56Z" fill="#0C7AFF"/>
<path d="M-45.1367 305C-40.3668 305 -36.5001 308.867 -36.5 313.637V336.212H96.2295C99.4094 336.212 101.987 338.79 101.987 341.97V487.42C101.987 490.6 99.4095 493.178 96.2295 493.178H-124.742C-127.922 493.178 -130.5 490.6 -130.5 487.42V313.637C-130.5 308.867 -126.633 305 -121.863 305H-45.1367Z" fill="#3692FF"/>
</g>
<g opacity="0.5" clip-path="url(#clip2_46511_4339)">
<path d="M573.867 328.56C573.867 323.79 577.734 319.923 582.504 319.923H699.984C704.754 319.923 708.621 323.79 708.621 328.56V398.571C708.621 401.751 706.043 404.329 702.863 404.329H579.625C576.445 404.329 573.867 401.751 573.867 398.571V328.56Z" fill="#0C7AFF"/>
<path d="M571.863 305C576.633 305 580.5 308.867 580.5 313.637V336.212H713.229C716.409 336.212 718.987 338.79 718.987 341.97V487.42C718.987 490.6 716.41 493.178 713.229 493.178H492.258C489.078 493.178 486.5 490.6 486.5 487.42V313.637C486.5 308.867 490.367 305 495.137 305H571.863Z" fill="#3692FF"/>
</g>
</g>
<g clip-path="url(#clip3_46511_4339)">
<path d="M264.868 328.194C264.868 323.424 268.735 319.557 273.505 319.557H390.985C395.755 319.557 399.622 323.424 399.622 328.194V398.206C399.622 401.386 397.044 403.964 393.864 403.964H270.626C267.446 403.964 264.868 401.386 264.868 398.206V328.194Z" fill="#0C7AFF"/>
<path d="M262.863 304.634C267.633 304.634 271.5 308.501 271.5 313.271V335.846H404.229C407.409 335.846 409.987 338.424 409.987 341.604V487.054C409.987 490.234 407.41 492.812 404.229 492.812H183.258C180.078 492.812 177.5 490.234 177.5 487.054V313.271C177.5 308.501 181.367 304.634 186.137 304.634H262.863Z" fill="#3692FF"/>
</g>
<path d="M76.5 127.711C76.5 118.62 83.8697 111.25 92.9607 111.25H191.039C200.13 111.25 207.5 118.62 207.5 127.711V230.546C207.5 237.174 202.127 242.546 195.5 242.546H88.5C81.8726 242.546 76.5 237.174 76.5 230.546V127.711Z" fill="#8698FF"/>
<path d="M124.807 143.469L127.895 130.549C128.072 129.806 129.08 129.688 129.423 130.37L135.397 142.227L142.429 202.586L131.838 203.828L124.807 143.469Z" fill="#E02D2C"/>
<path d="M127.826 130.556C128.004 129.814 129.011 129.696 129.354 130.376L134.584 140.748C133.158 141.779 131.46 142.474 129.589 142.694C128 142.881 126.453 142.705 125.027 142.236L127.826 130.556Z" fill="white"/>
<path d="M127.803 130.559C127.981 129.817 128.988 129.699 129.332 130.379L130.734 133.161C130.205 133.421 129.624 133.599 129.005 133.671C128.344 133.749 127.696 133.7 127.087 133.546L127.803 130.559Z" fill="#E02D2C"/>
<path d="M149.826 142.226L155.804 130.371C156.148 129.689 157.155 129.808 157.333 130.551L160.416 143.472L153.363 203.828L142.773 202.582L149.826 142.226Z" fill="#292424"/>
<path d="M155.724 130.36C156.068 129.68 157.073 129.798 157.251 130.54L159.959 141.858C158.34 142.524 156.534 142.801 154.671 142.582C153.075 142.393 151.603 141.86 150.319 141.067L155.724 130.36Z" fill="white"/>
<path d="M155.794 130.061C156.138 129.38 157.143 129.499 157.321 130.241L158.048 133.279C157.48 133.406 156.882 133.442 156.271 133.37C155.602 133.291 154.976 133.09 154.413 132.793L155.794 130.061Z" fill="#292424"/>
<path d="M119.023 166.747C119.023 164.031 121.225 161.83 123.94 161.83H161.222C163.938 161.83 166.139 164.031 166.139 166.747V208.549C166.139 215.177 160.766 220.549 154.139 220.549H131.023C124.396 220.549 119.023 215.177 119.023 208.549V166.747Z" fill="#5F76FF"/>
<rect x="119.023" y="178.255" width="47.1153" height="20.9418" fill="#FFD875"/>
<path d="M237.5 127.711C237.5 118.62 244.87 111.25 253.961 111.25H352.039C361.13 111.25 368.5 118.62 368.5 127.711V230.546C368.5 237.174 363.127 242.546 356.5 242.546H249.5C242.873 242.546 237.5 237.174 237.5 230.546V127.711Z" fill="#B9D9FF"/>
<path d="M272.479 138.547L328.037 134.944C330.72 134.77 332.992 136.899 332.992 139.588V211.31C332.992 213.88 330.908 215.963 328.338 215.963H272.479V138.547Z" fill="#F3F4F6"/>
<path d="M272.479 138.547L329.24 140.862C331.734 140.964 333.704 143.015 333.704 145.512V214.27C333.704 216.936 331.469 219.057 328.807 218.917L272.479 215.963V138.547Z" fill="#4E93EF"/>
<path d="M309.143 139.974L322.669 140.509V160.309L315.906 156.242L309.143 160.309V139.974Z" fill="white"/>
<path d="M393.5 127.083C393.5 118.339 400.588 111.25 409.332 111.25H508.668C517.412 111.25 524.5 118.339 524.5 127.083V230.546C524.5 237.174 519.127 242.546 512.5 242.546H405.5C398.873 242.546 393.5 237.174 393.5 230.546V127.083Z" fill="#FFB9E3"/>
<path d="M452.294 179.78C452.497 179.111 454.002 177.774 458.394 177.774C462.786 177.774 464.494 179.111 464.799 179.78" stroke="#FF46C0" stroke-width="3.84902"/>
<path d="M440.697 169.13C446.982 169.13 451.645 173.671 451.826 179.035V179.378C451.826 182.288 450.613 184.814 448.554 186.555L447.531 187.42V187.537C447.261 187.751 446.951 187.995 446.612 188.267C445.466 189.186 443.934 190.43 442.268 191.784C438.935 194.493 435.066 197.645 432.593 199.615C432.275 199.846 431.711 199.847 431.394 199.615C428.924 197.648 424.999 194.443 421.647 191.69C419.969 190.31 418.438 189.048 417.313 188.118C416.125 187.135 415.509 186.621 415.526 186.638C413.343 184.624 412.161 182.034 412.161 179.378V179.024C412.348 173.927 417.177 169.339 423.29 169.339C424.108 169.339 425.251 169.606 426.414 170.184C427.491 170.718 428.384 171.423 428.961 172.151C430.334 174.642 434.072 174.584 435.338 171.98C435.784 171.276 436.617 170.552 437.723 169.984C438.882 169.387 440.013 169.13 440.697 169.13Z" stroke="#FF68CC" stroke-width="5.77353"/>
<path d="M492.72 169.13C499.004 169.13 503.668 173.671 503.849 179.035V179.378C503.849 182.288 502.635 184.814 500.576 186.555L499.554 187.42V187.537C499.284 187.751 498.973 187.995 498.635 188.267C497.489 189.186 495.957 190.43 494.29 191.784C490.957 194.493 487.088 197.645 484.615 199.615C484.298 199.846 483.733 199.847 483.416 199.615C480.947 197.648 477.021 194.443 473.67 191.69C471.991 190.31 470.46 189.048 469.336 188.118C468.147 187.135 467.531 186.621 467.549 186.638C465.366 184.624 464.184 182.034 464.184 179.378V179.024C464.371 173.927 469.199 169.339 475.312 169.339C476.13 169.339 477.274 169.606 478.437 170.184C479.513 170.718 480.407 171.423 480.983 172.151C482.357 174.642 486.094 174.584 487.36 171.98C487.806 171.276 488.64 170.552 489.745 169.984C490.905 169.387 492.035 169.13 492.72 169.13Z" stroke="#FF68CC" stroke-width="5.77353"/>
<path d="M415.03 140.505C415.11 140.035 415.785 140.035 415.865 140.505L416.218 142.573C416.904 146.59 419.462 150.041 423.106 151.865C423.342 151.983 423.342 152.32 423.106 152.438C419.462 154.262 416.904 157.713 416.218 161.73L415.865 163.798C415.785 164.268 415.11 164.268 415.03 163.798L414.676 161.73C413.99 157.713 411.432 154.262 407.788 152.438C407.553 152.32 407.553 151.983 407.788 151.865C411.432 150.041 413.99 146.59 414.676 142.573L415.03 140.505Z" fill="white"/>
<path d="M431.3 136.196C431.35 135.897 431.779 135.897 431.83 136.196L432.054 137.526C432.478 140.049 434.074 142.22 436.355 143.379C436.502 143.454 436.502 143.664 436.355 143.739C434.074 144.897 432.478 147.069 432.054 149.592L431.83 150.922C431.779 151.221 431.35 151.221 431.3 150.922L431.076 149.592C430.651 147.069 429.055 144.897 426.775 143.739C426.628 143.664 426.628 143.454 426.775 143.379C429.055 142.22 430.651 140.049 431.076 137.526L431.3 136.196Z" fill="white"/>
<path d="M413.987 266.107C412.171 263.329 412.948 259.6 415.722 257.778C418.496 255.957 422.217 256.732 424.033 259.51L506.772 386.099C508.587 388.877 507.811 392.606 505.036 394.427C502.262 396.249 498.541 395.474 496.726 392.696L413.987 266.107Z" fill="#374151"/>
<path d="M415.722 257.779C418.496 255.957 422.217 256.732 424.033 259.511L429.506 267.884L419.46 274.482L413.986 266.107C412.171 263.329 412.948 259.6 415.722 257.779Z" fill="#3692FF"/>
<path d="M419.467 274.487L429.506 267.894C430.413 269.282 430.025 271.146 428.639 272.056L423.619 275.352C422.233 276.262 420.374 275.875 419.467 274.487Z" fill="#111827"/>
<defs>
<clipPath id="clip0_46511_4339">
<path d="M0.5 0H588.5V432C588.5 438.627 583.127 444 576.5 444H12.5C5.87258 444 0.5 438.627 0.5 432V0Z" fill="white"/>
</clipPath>
<clipPath id="clip1_46511_4339">
<rect width="293" height="162" fill="white" transform="translate(-158.5 282)"/>
</clipPath>
<clipPath id="clip2_46511_4339">
<rect width="293" height="162" fill="white" transform="translate(458.5 282)"/>
</clipPath>
<clipPath id="clip3_46511_4339">
<path d="M149.5 281.634H442.5V432C442.5 438.627 437.127 444 430.5 444H161.5C154.873 444 149.5 438.627 149.5 432V281.634Z" fill="white"/>
</clipPath>
</defs>
</svg>
